<mxfile host="app.diagrams.net" agent="Mozilla/5.0 (Windows NT 10.0; Win64; x64) AppleWebKit/537.36 (KHTML, like Gecko) Chrome/133.0.0.0 Safari/537.36 Edg/133.0.0.0" version="26.1.0">
  <diagram id="C5RBs43oDa-KdzZeNtuy" name="Page-1">
    <mxGraphModel dx="664" dy="893" grid="1" gridSize="10" guides="1" tooltips="1" connect="1" arrows="1" fold="1" page="1" pageScale="1" pageWidth="827" pageHeight="1169" math="0" shadow="0">
      <root>
        <mxCell id="WIyWlLk6GJQsqaUBKTNV-0" />
        <mxCell id="WIyWlLk6GJQsqaUBKTNV-1" parent="WIyWlLk6GJQsqaUBKTNV-0" />
        <mxCell id="uzLOWACLey-Dd6xB8Pbr-2" style="edgeStyle=orthogonalEdgeStyle;rounded=0;orthogonalLoop=1;jettySize=auto;html=1;entryX=0.5;entryY=0;entryDx=0;entryDy=0;" edge="1" parent="WIyWlLk6GJQsqaUBKTNV-1" source="uzLOWACLey-Dd6xB8Pbr-0" target="uzLOWACLey-Dd6xB8Pbr-1">
          <mxGeometry relative="1" as="geometry" />
        </mxCell>
        <mxCell id="uzLOWACLey-Dd6xB8Pbr-0" value="Начало" style="strokeWidth=2;html=1;shape=mxgraph.flowchart.terminator;whiteSpace=wrap;" vertex="1" parent="WIyWlLk6GJQsqaUBKTNV-1">
          <mxGeometry x="160" y="40" width="160" height="40" as="geometry" />
        </mxCell>
        <mxCell id="uzLOWACLey-Dd6xB8Pbr-5" style="edgeStyle=orthogonalEdgeStyle;rounded=0;orthogonalLoop=1;jettySize=auto;html=1;entryX=0.5;entryY=0;entryDx=0;entryDy=0;" edge="1" parent="WIyWlLk6GJQsqaUBKTNV-1" source="uzLOWACLey-Dd6xB8Pbr-1" target="uzLOWACLey-Dd6xB8Pbr-4">
          <mxGeometry relative="1" as="geometry" />
        </mxCell>
        <mxCell id="uzLOWACLey-Dd6xB8Pbr-1" value="Choice, Data" style="shape=parallelogram;perimeter=parallelogramPerimeter;whiteSpace=wrap;html=1;fixedSize=1;" vertex="1" parent="WIyWlLk6GJQsqaUBKTNV-1">
          <mxGeometry x="160" y="120" width="160" height="40" as="geometry" />
        </mxCell>
        <mxCell id="uzLOWACLey-Dd6xB8Pbr-4" value="InitializeList" style="shape=process;whiteSpace=wrap;html=1;backgroundOutline=1;" vertex="1" parent="WIyWlLk6GJQsqaUBKTNV-1">
          <mxGeometry x="160" y="200" width="160" height="40" as="geometry" />
        </mxCell>
        <mxCell id="uzLOWACLey-Dd6xB8Pbr-9" style="edgeStyle=orthogonalEdgeStyle;rounded=0;orthogonalLoop=1;jettySize=auto;html=1;entryX=0.5;entryY=0;entryDx=0;entryDy=0;" edge="1" parent="WIyWlLk6GJQsqaUBKTNV-1" source="uzLOWACLey-Dd6xB8Pbr-6" target="uzLOWACLey-Dd6xB8Pbr-8">
          <mxGeometry relative="1" as="geometry" />
        </mxCell>
        <mxCell id="uzLOWACLey-Dd6xB8Pbr-6" value="Цикл меню" style="strokeWidth=2;html=1;shape=mxgraph.flowchart.loop_limit;whiteSpace=wrap;" vertex="1" parent="WIyWlLk6GJQsqaUBKTNV-1">
          <mxGeometry x="160" y="280" width="160" height="40" as="geometry" />
        </mxCell>
        <mxCell id="uzLOWACLey-Dd6xB8Pbr-7" style="edgeStyle=orthogonalEdgeStyle;rounded=0;orthogonalLoop=1;jettySize=auto;html=1;entryX=0.5;entryY=0;entryDx=0;entryDy=0;entryPerimeter=0;" edge="1" parent="WIyWlLk6GJQsqaUBKTNV-1" source="uzLOWACLey-Dd6xB8Pbr-4" target="uzLOWACLey-Dd6xB8Pbr-6">
          <mxGeometry relative="1" as="geometry" />
        </mxCell>
        <mxCell id="uzLOWACLey-Dd6xB8Pbr-11" style="edgeStyle=orthogonalEdgeStyle;rounded=0;orthogonalLoop=1;jettySize=auto;html=1;entryX=0.5;entryY=0;entryDx=0;entryDy=0;" edge="1" parent="WIyWlLk6GJQsqaUBKTNV-1" source="uzLOWACLey-Dd6xB8Pbr-8" target="uzLOWACLey-Dd6xB8Pbr-10">
          <mxGeometry relative="1" as="geometry" />
        </mxCell>
        <mxCell id="uzLOWACLey-Dd6xB8Pbr-8" value="ShowMenu" style="shape=process;whiteSpace=wrap;html=1;backgroundOutline=1;" vertex="1" parent="WIyWlLk6GJQsqaUBKTNV-1">
          <mxGeometry x="160" y="360" width="160" height="40" as="geometry" />
        </mxCell>
        <mxCell id="uzLOWACLey-Dd6xB8Pbr-13" style="edgeStyle=orthogonalEdgeStyle;rounded=0;orthogonalLoop=1;jettySize=auto;html=1;" edge="1" parent="WIyWlLk6GJQsqaUBKTNV-1" source="uzLOWACLey-Dd6xB8Pbr-10" target="uzLOWACLey-Dd6xB8Pbr-12">
          <mxGeometry relative="1" as="geometry" />
        </mxCell>
        <mxCell id="uzLOWACLey-Dd6xB8Pbr-10" value="Вывод&lt;div&gt;&#39;Выберите действие: &#39;&lt;/div&gt;" style="shape=parallelogram;perimeter=parallelogramPerimeter;whiteSpace=wrap;html=1;fixedSize=1;" vertex="1" parent="WIyWlLk6GJQsqaUBKTNV-1">
          <mxGeometry x="160" y="440" width="160" height="40" as="geometry" />
        </mxCell>
        <mxCell id="uzLOWACLey-Dd6xB8Pbr-38" style="edgeStyle=orthogonalEdgeStyle;rounded=0;orthogonalLoop=1;jettySize=auto;html=1;" edge="1" parent="WIyWlLk6GJQsqaUBKTNV-1" source="uzLOWACLey-Dd6xB8Pbr-12">
          <mxGeometry relative="1" as="geometry">
            <mxPoint x="240" y="1481" as="targetPoint" />
          </mxGeometry>
        </mxCell>
        <mxCell id="uzLOWACLey-Dd6xB8Pbr-12" value="Ввод&lt;div&gt;Choice&lt;/div&gt;" style="shape=parallelogram;perimeter=parallelogramPerimeter;whiteSpace=wrap;html=1;fixedSize=1;" vertex="1" parent="WIyWlLk6GJQsqaUBKTNV-1">
          <mxGeometry x="160" y="520" width="160" height="40" as="geometry" />
        </mxCell>
        <mxCell id="uzLOWACLey-Dd6xB8Pbr-20" style="edgeStyle=orthogonalEdgeStyle;rounded=0;orthogonalLoop=1;jettySize=auto;html=1;entryX=0.5;entryY=0;entryDx=0;entryDy=0;" edge="1" parent="WIyWlLk6GJQsqaUBKTNV-1" source="uzLOWACLey-Dd6xB8Pbr-15" target="uzLOWACLey-Dd6xB8Pbr-18">
          <mxGeometry relative="1" as="geometry" />
        </mxCell>
        <mxCell id="uzLOWACLey-Dd6xB8Pbr-15" value="Вывод&lt;div&gt;&#39;Введите значение элемента: &#39;&lt;/div&gt;" style="shape=parallelogram;perimeter=parallelogramPerimeter;whiteSpace=wrap;html=1;fixedSize=1;" vertex="1" parent="WIyWlLk6GJQsqaUBKTNV-1">
          <mxGeometry x="360" y="600" width="160" height="40" as="geometry" />
        </mxCell>
        <mxCell id="uzLOWACLey-Dd6xB8Pbr-21" style="edgeStyle=orthogonalEdgeStyle;rounded=0;orthogonalLoop=1;jettySize=auto;html=1;entryX=0.5;entryY=0;entryDx=0;entryDy=0;" edge="1" parent="WIyWlLk6GJQsqaUBKTNV-1" source="uzLOWACLey-Dd6xB8Pbr-18" target="uzLOWACLey-Dd6xB8Pbr-19">
          <mxGeometry relative="1" as="geometry" />
        </mxCell>
        <mxCell id="uzLOWACLey-Dd6xB8Pbr-18" value="Ввод&lt;div&gt;Data&lt;/div&gt;" style="shape=parallelogram;perimeter=parallelogramPerimeter;whiteSpace=wrap;html=1;fixedSize=1;" vertex="1" parent="WIyWlLk6GJQsqaUBKTNV-1">
          <mxGeometry x="360" y="680" width="160" height="40" as="geometry" />
        </mxCell>
        <mxCell id="uzLOWACLey-Dd6xB8Pbr-19" value="AddElement(Data)" style="shape=process;whiteSpace=wrap;html=1;backgroundOutline=1;" vertex="1" parent="WIyWlLk6GJQsqaUBKTNV-1">
          <mxGeometry x="360" y="760" width="160" height="40" as="geometry" />
        </mxCell>
        <mxCell id="uzLOWACLey-Dd6xB8Pbr-26" style="edgeStyle=orthogonalEdgeStyle;rounded=0;orthogonalLoop=1;jettySize=auto;html=1;entryX=0.5;entryY=0;entryDx=0;entryDy=0;" edge="1" parent="WIyWlLk6GJQsqaUBKTNV-1" source="uzLOWACLey-Dd6xB8Pbr-22" target="uzLOWACLey-Dd6xB8Pbr-24">
          <mxGeometry relative="1" as="geometry" />
        </mxCell>
        <mxCell id="uzLOWACLey-Dd6xB8Pbr-22" value="Вывод&lt;div&gt;&#39;Введите значение элемента для удаления: &#39;&lt;/div&gt;" style="shape=parallelogram;perimeter=parallelogramPerimeter;whiteSpace=wrap;html=1;fixedSize=1;" vertex="1" parent="WIyWlLk6GJQsqaUBKTNV-1">
          <mxGeometry x="360" y="840" width="160" height="40" as="geometry" />
        </mxCell>
        <mxCell id="uzLOWACLey-Dd6xB8Pbr-23" value="" style="endArrow=classic;html=1;rounded=0;" edge="1" parent="WIyWlLk6GJQsqaUBKTNV-1" target="uzLOWACLey-Dd6xB8Pbr-22">
          <mxGeometry width="50" height="50" relative="1" as="geometry">
            <mxPoint x="240" y="860" as="sourcePoint" />
            <mxPoint x="370" y="630" as="targetPoint" />
          </mxGeometry>
        </mxCell>
        <mxCell id="uzLOWACLey-Dd6xB8Pbr-27" style="edgeStyle=orthogonalEdgeStyle;rounded=0;orthogonalLoop=1;jettySize=auto;html=1;" edge="1" parent="WIyWlLk6GJQsqaUBKTNV-1" source="uzLOWACLey-Dd6xB8Pbr-24" target="uzLOWACLey-Dd6xB8Pbr-25">
          <mxGeometry relative="1" as="geometry" />
        </mxCell>
        <mxCell id="uzLOWACLey-Dd6xB8Pbr-24" value="Ввод&lt;div&gt;Data&lt;/div&gt;" style="shape=parallelogram;perimeter=parallelogramPerimeter;whiteSpace=wrap;html=1;fixedSize=1;" vertex="1" parent="WIyWlLk6GJQsqaUBKTNV-1">
          <mxGeometry x="360" y="920" width="160" height="40" as="geometry" />
        </mxCell>
        <mxCell id="uzLOWACLey-Dd6xB8Pbr-25" value="DeleteElement(Data)" style="shape=process;whiteSpace=wrap;html=1;backgroundOutline=1;" vertex="1" parent="WIyWlLk6GJQsqaUBKTNV-1">
          <mxGeometry x="360" y="1000" width="160" height="40" as="geometry" />
        </mxCell>
        <mxCell id="uzLOWACLey-Dd6xB8Pbr-32" style="edgeStyle=orthogonalEdgeStyle;rounded=0;orthogonalLoop=1;jettySize=auto;html=1;entryX=0.5;entryY=0;entryDx=0;entryDy=0;" edge="1" parent="WIyWlLk6GJQsqaUBKTNV-1" source="uzLOWACLey-Dd6xB8Pbr-28" target="uzLOWACLey-Dd6xB8Pbr-30">
          <mxGeometry relative="1" as="geometry" />
        </mxCell>
        <mxCell id="uzLOWACLey-Dd6xB8Pbr-28" value="Ввод&lt;div&gt;&#39;Введите значение элемента для поиска: &#39;&lt;/div&gt;" style="shape=parallelogram;perimeter=parallelogramPerimeter;whiteSpace=wrap;html=1;fixedSize=1;" vertex="1" parent="WIyWlLk6GJQsqaUBKTNV-1">
          <mxGeometry x="360" y="1080" width="160" height="40" as="geometry" />
        </mxCell>
        <mxCell id="uzLOWACLey-Dd6xB8Pbr-29" value="" style="endArrow=classic;html=1;rounded=0;entryX=0;entryY=0.5;entryDx=0;entryDy=0;" edge="1" parent="WIyWlLk6GJQsqaUBKTNV-1" target="uzLOWACLey-Dd6xB8Pbr-28">
          <mxGeometry width="50" height="50" relative="1" as="geometry">
            <mxPoint x="240" y="1100" as="sourcePoint" />
            <mxPoint x="370" y="1030" as="targetPoint" />
          </mxGeometry>
        </mxCell>
        <mxCell id="uzLOWACLey-Dd6xB8Pbr-33" style="edgeStyle=orthogonalEdgeStyle;rounded=0;orthogonalLoop=1;jettySize=auto;html=1;entryX=0.5;entryY=0;entryDx=0;entryDy=0;" edge="1" parent="WIyWlLk6GJQsqaUBKTNV-1" source="uzLOWACLey-Dd6xB8Pbr-30" target="uzLOWACLey-Dd6xB8Pbr-31">
          <mxGeometry relative="1" as="geometry" />
        </mxCell>
        <mxCell id="uzLOWACLey-Dd6xB8Pbr-30" value="Ввод&lt;div&gt;Data&lt;/div&gt;" style="shape=parallelogram;perimeter=parallelogramPerimeter;whiteSpace=wrap;html=1;fixedSize=1;" vertex="1" parent="WIyWlLk6GJQsqaUBKTNV-1">
          <mxGeometry x="360" y="1160" width="160" height="40" as="geometry" />
        </mxCell>
        <mxCell id="uzLOWACLey-Dd6xB8Pbr-31" value="&lt;div&gt;FindElement(Data);&lt;/div&gt;" style="shape=process;whiteSpace=wrap;html=1;backgroundOutline=1;" vertex="1" parent="WIyWlLk6GJQsqaUBKTNV-1">
          <mxGeometry x="360" y="1240" width="160" height="40" as="geometry" />
        </mxCell>
        <mxCell id="uzLOWACLey-Dd6xB8Pbr-34" value="PrintList" style="shape=process;whiteSpace=wrap;html=1;backgroundOutline=1;" vertex="1" parent="WIyWlLk6GJQsqaUBKTNV-1">
          <mxGeometry x="360" y="1320" width="160" height="40" as="geometry" />
        </mxCell>
        <mxCell id="uzLOWACLey-Dd6xB8Pbr-35" value="" style="endArrow=classic;html=1;rounded=0;entryX=0;entryY=0.5;entryDx=0;entryDy=0;" edge="1" parent="WIyWlLk6GJQsqaUBKTNV-1" target="uzLOWACLey-Dd6xB8Pbr-34">
          <mxGeometry width="50" height="50" relative="1" as="geometry">
            <mxPoint x="240" y="1340" as="sourcePoint" />
            <mxPoint x="370" y="1430" as="targetPoint" />
          </mxGeometry>
        </mxCell>
        <mxCell id="uzLOWACLey-Dd6xB8Pbr-36" value="Вывод&lt;div&gt;&#39;Выход из программы.&#39;&lt;/div&gt;" style="shape=parallelogram;perimeter=parallelogramPerimeter;whiteSpace=wrap;html=1;fixedSize=1;" vertex="1" parent="WIyWlLk6GJQsqaUBKTNV-1">
          <mxGeometry x="360" y="1400" width="160" height="40" as="geometry" />
        </mxCell>
        <mxCell id="uzLOWACLey-Dd6xB8Pbr-37" value="" style="endArrow=classic;html=1;rounded=0;entryX=0;entryY=0.5;entryDx=0;entryDy=0;" edge="1" parent="WIyWlLk6GJQsqaUBKTNV-1" target="uzLOWACLey-Dd6xB8Pbr-36">
          <mxGeometry width="50" height="50" relative="1" as="geometry">
            <mxPoint x="240" y="1420" as="sourcePoint" />
            <mxPoint x="370" y="1430" as="targetPoint" />
          </mxGeometry>
        </mxCell>
        <mxCell id="uzLOWACLey-Dd6xB8Pbr-42" style="edgeStyle=orthogonalEdgeStyle;rounded=0;orthogonalLoop=1;jettySize=auto;html=1;" edge="1" parent="WIyWlLk6GJQsqaUBKTNV-1" source="uzLOWACLey-Dd6xB8Pbr-39" target="uzLOWACLey-Dd6xB8Pbr-41">
          <mxGeometry relative="1" as="geometry" />
        </mxCell>
        <mxCell id="uzLOWACLey-Dd6xB8Pbr-39" value="Вывод&lt;div&gt;&#39;Неверный выбор. Попробуйте снова.&#39;&lt;/div&gt;" style="shape=parallelogram;perimeter=parallelogramPerimeter;whiteSpace=wrap;html=1;fixedSize=1;" vertex="1" parent="WIyWlLk6GJQsqaUBKTNV-1">
          <mxGeometry x="160" y="1480" width="160" height="40" as="geometry" />
        </mxCell>
        <mxCell id="uzLOWACLey-Dd6xB8Pbr-41" value="Цикл меню&lt;div&gt;Choice = 5&lt;/div&gt;" style="strokeWidth=2;html=1;shape=mxgraph.flowchart.loop_limit;whiteSpace=wrap;direction=west;" vertex="1" parent="WIyWlLk6GJQsqaUBKTNV-1">
          <mxGeometry x="160" y="1560" width="160" height="40" as="geometry" />
        </mxCell>
        <mxCell id="uzLOWACLey-Dd6xB8Pbr-43" value="Choice = 5" style="text;html=1;align=center;verticalAlign=middle;whiteSpace=wrap;rounded=0;" vertex="1" parent="WIyWlLk6GJQsqaUBKTNV-1">
          <mxGeometry x="240" y="1400" width="60" height="30" as="geometry" />
        </mxCell>
        <mxCell id="uzLOWACLey-Dd6xB8Pbr-44" value="Choice = 4" style="text;html=1;align=center;verticalAlign=middle;whiteSpace=wrap;rounded=0;" vertex="1" parent="WIyWlLk6GJQsqaUBKTNV-1">
          <mxGeometry x="240" y="1320" width="60" height="30" as="geometry" />
        </mxCell>
        <mxCell id="uzLOWACLey-Dd6xB8Pbr-45" value="Choice = 3" style="text;html=1;align=center;verticalAlign=middle;whiteSpace=wrap;rounded=0;" vertex="1" parent="WIyWlLk6GJQsqaUBKTNV-1">
          <mxGeometry x="240" y="1080" width="60" height="30" as="geometry" />
        </mxCell>
        <mxCell id="uzLOWACLey-Dd6xB8Pbr-46" value="Choice = 2" style="text;html=1;align=center;verticalAlign=middle;whiteSpace=wrap;rounded=0;" vertex="1" parent="WIyWlLk6GJQsqaUBKTNV-1">
          <mxGeometry x="240" y="840" width="60" height="30" as="geometry" />
        </mxCell>
        <mxCell id="uzLOWACLey-Dd6xB8Pbr-48" value="Choice = 1" style="text;html=1;align=center;verticalAlign=middle;whiteSpace=wrap;rounded=0;" vertex="1" parent="WIyWlLk6GJQsqaUBKTNV-1">
          <mxGeometry x="240" y="600" width="60" height="30" as="geometry" />
        </mxCell>
        <mxCell id="uzLOWACLey-Dd6xB8Pbr-50" value="" style="endArrow=classic;html=1;rounded=0;" edge="1" parent="WIyWlLk6GJQsqaUBKTNV-1">
          <mxGeometry width="50" height="50" relative="1" as="geometry">
            <mxPoint x="240" y="619.5" as="sourcePoint" />
            <mxPoint x="370" y="619.5" as="targetPoint" />
          </mxGeometry>
        </mxCell>
        <mxCell id="uzLOWACLey-Dd6xB8Pbr-51" value="" style="endArrow=none;html=1;rounded=0;entryX=0.5;entryY=1;entryDx=0;entryDy=0;" edge="1" parent="WIyWlLk6GJQsqaUBKTNV-1" target="uzLOWACLey-Dd6xB8Pbr-19">
          <mxGeometry width="50" height="50" relative="1" as="geometry">
            <mxPoint x="440" y="820" as="sourcePoint" />
            <mxPoint x="370" y="740" as="targetPoint" />
          </mxGeometry>
        </mxCell>
        <mxCell id="uzLOWACLey-Dd6xB8Pbr-52" value="" style="endArrow=none;html=1;rounded=0;entryX=0.5;entryY=1;entryDx=0;entryDy=0;" edge="1" parent="WIyWlLk6GJQsqaUBKTNV-1">
          <mxGeometry width="50" height="50" relative="1" as="geometry">
            <mxPoint x="439.5" y="1060" as="sourcePoint" />
            <mxPoint x="439.5" y="1040" as="targetPoint" />
          </mxGeometry>
        </mxCell>
        <mxCell id="uzLOWACLey-Dd6xB8Pbr-53" value="" style="endArrow=none;html=1;rounded=0;entryX=0.5;entryY=1;entryDx=0;entryDy=0;" edge="1" parent="WIyWlLk6GJQsqaUBKTNV-1">
          <mxGeometry width="50" height="50" relative="1" as="geometry">
            <mxPoint x="439.5" y="1300" as="sourcePoint" />
            <mxPoint x="439.5" y="1280" as="targetPoint" />
          </mxGeometry>
        </mxCell>
        <mxCell id="uzLOWACLey-Dd6xB8Pbr-54" value="" style="endArrow=none;html=1;rounded=0;entryX=0.5;entryY=1;entryDx=0;entryDy=0;" edge="1" parent="WIyWlLk6GJQsqaUBKTNV-1">
          <mxGeometry width="50" height="50" relative="1" as="geometry">
            <mxPoint x="439.5" y="1460" as="sourcePoint" />
            <mxPoint x="439.5" y="1440" as="targetPoint" />
          </mxGeometry>
        </mxCell>
        <mxCell id="uzLOWACLey-Dd6xB8Pbr-55" value="" style="endArrow=none;html=1;rounded=0;entryX=0.5;entryY=1;entryDx=0;entryDy=0;" edge="1" parent="WIyWlLk6GJQsqaUBKTNV-1">
          <mxGeometry width="50" height="50" relative="1" as="geometry">
            <mxPoint x="439.5" y="1380" as="sourcePoint" />
            <mxPoint x="439.5" y="1360" as="targetPoint" />
          </mxGeometry>
        </mxCell>
        <mxCell id="uzLOWACLey-Dd6xB8Pbr-56" value="" style="endArrow=none;html=1;rounded=0;" edge="1" parent="WIyWlLk6GJQsqaUBKTNV-1">
          <mxGeometry width="50" height="50" relative="1" as="geometry">
            <mxPoint x="560" y="1460" as="sourcePoint" />
            <mxPoint x="440" y="1460" as="targetPoint" />
          </mxGeometry>
        </mxCell>
        <mxCell id="uzLOWACLey-Dd6xB8Pbr-57" value="" style="endArrow=none;html=1;rounded=0;" edge="1" parent="WIyWlLk6GJQsqaUBKTNV-1">
          <mxGeometry width="50" height="50" relative="1" as="geometry">
            <mxPoint x="560" y="1380" as="sourcePoint" />
            <mxPoint x="440" y="1380" as="targetPoint" />
          </mxGeometry>
        </mxCell>
        <mxCell id="uzLOWACLey-Dd6xB8Pbr-58" value="" style="endArrow=none;html=1;rounded=0;" edge="1" parent="WIyWlLk6GJQsqaUBKTNV-1">
          <mxGeometry width="50" height="50" relative="1" as="geometry">
            <mxPoint x="560" y="1300" as="sourcePoint" />
            <mxPoint x="440" y="1300" as="targetPoint" />
          </mxGeometry>
        </mxCell>
        <mxCell id="uzLOWACLey-Dd6xB8Pbr-59" value="" style="endArrow=none;html=1;rounded=0;" edge="1" parent="WIyWlLk6GJQsqaUBKTNV-1">
          <mxGeometry width="50" height="50" relative="1" as="geometry">
            <mxPoint x="560" y="1060" as="sourcePoint" />
            <mxPoint x="440" y="1060" as="targetPoint" />
          </mxGeometry>
        </mxCell>
        <mxCell id="uzLOWACLey-Dd6xB8Pbr-60" value="" style="endArrow=none;html=1;rounded=0;" edge="1" parent="WIyWlLk6GJQsqaUBKTNV-1">
          <mxGeometry width="50" height="50" relative="1" as="geometry">
            <mxPoint x="560" y="820" as="sourcePoint" />
            <mxPoint x="440" y="820" as="targetPoint" />
          </mxGeometry>
        </mxCell>
        <mxCell id="uzLOWACLey-Dd6xB8Pbr-61" value="" style="endArrow=none;html=1;rounded=0;" edge="1" parent="WIyWlLk6GJQsqaUBKTNV-1">
          <mxGeometry width="50" height="50" relative="1" as="geometry">
            <mxPoint x="560" y="1543" as="sourcePoint" />
            <mxPoint x="560" y="820" as="targetPoint" />
          </mxGeometry>
        </mxCell>
        <mxCell id="uzLOWACLey-Dd6xB8Pbr-63" value="" style="endArrow=classic;html=1;rounded=0;" edge="1" parent="WIyWlLk6GJQsqaUBKTNV-1">
          <mxGeometry width="50" height="50" relative="1" as="geometry">
            <mxPoint x="560" y="1540" as="sourcePoint" />
            <mxPoint x="240" y="1540" as="targetPoint" />
          </mxGeometry>
        </mxCell>
        <mxCell id="uzLOWACLey-Dd6xB8Pbr-64" value="Конец" style="strokeWidth=2;html=1;shape=mxgraph.flowchart.terminator;whiteSpace=wrap;" vertex="1" parent="WIyWlLk6GJQsqaUBKTNV-1">
          <mxGeometry x="160" y="1640" width="160" height="40" as="geometry" />
        </mxCell>
        <mxCell id="uzLOWACLey-Dd6xB8Pbr-66" style="edgeStyle=orthogonalEdgeStyle;rounded=0;orthogonalLoop=1;jettySize=auto;html=1;entryX=0.5;entryY=0;entryDx=0;entryDy=0;entryPerimeter=0;" edge="1" parent="WIyWlLk6GJQsqaUBKTNV-1" source="uzLOWACLey-Dd6xB8Pbr-41" target="uzLOWACLey-Dd6xB8Pbr-64">
          <mxGeometry relative="1" as="geometry" />
        </mxCell>
      </root>
    </mxGraphModel>
  </diagram>
</mxfile>
